<?xml version="1.0" ?>
<!DOCTYPE svg  PUBLIC '-//W3C//DTD SVG 1.1//EN'  'http://www.w3.org/Graphics/SVG/1.1/DTD/svg11.dtd'>
<!-- Uploaded to: SVG Repo, www.svgrepo.com, Generator: SVG Repo Mixer Tools -->
<svg width="800px" height="800px" viewBox="0 0 958 958" style="shape-rendering:geometricPrecision; text-rendering:geometricPrecision; image-rendering:optimizeQuality; fill-rule:evenodd; clip-rule:evenodd" version="1.1" xml:space="preserve" xmlns="http://www.w3.org/2000/svg" xmlns:xlink="http://www.w3.org/1999/xlink">
<defs>
<style type="text/css">
   <![CDATA[
    .fil0 {fill:#FEFEFE}
    .fil1 {fill:#1D1819}
   ]]>
  </style>
</defs>
<g id="Layer_x0020_1">
<g id="_602466800">
<polygon class="fil0" points="321,0 637,0 637,65 702,65 702,130 767,130 767,256 828,256 828,446 767,446 767,576 828,576 828,702 893,702 893,828 958,828 958,958 511,958 511,828 446,828 446,958 65,958 65,828 130,828 130,763 256,763 256,702 130,702 130,576 191,576 191,511 130,511 130,446 65,446 65,382 0,382 0,256 65,256 65,191 191,191 191,130 256,130 256,65 321,65 "/>
<g>
<path class="fil1" d="M321 0l316 0 0 65 65 0 0 65 65 0 0 126 61 0 0 190 -61 0 -65 0 0 130 65 0 61 0 0 126 65 0 0 126 65 0 0 65 0 65 -65 0 -65 0 -61 0 -65 0 -65 0 -65 0 -61 0 0 -65 0 -65 -65 0 0 65 0 65 -64 0 -252 0 -65 0 0 -65 0 -65 65 0 65 0 0 65 -65 0 0 -65 0 -65 65 0 61 0 0 -61 65 0 0 -191 0 -511zm-65 576l0 61 -65 0 0 -61 -61 0 0 61 0 65 61 0 65 0 0 -65 0 -61zm65 126l61 0 0 61 64 0 191 0 65 0 0 -61 0 -65 -65 0 -65 0 0 -61 65 0 0 -65 -65 0 0 65 -61 0 0 61 0 65 61 0 65 0 0 61 0 65 65 0 0 65 65 0 0 -65 61 0 65 0 0 65 -65 0 0 -65 0 -126 -61 0 0 -126 0 -130 0 -190 -65 0 0 -126 -65 0 0 -65 -316 0 0 -65 0 702zm-65 61l0 65 0 65 126 0 0 -65 0 -65 -126 0zm190 -507l-64 0 0 65 194 0 0 -65 0 -65 -65 0 0 -65 -129 0 0 65 64 0 0 65zm-125 -191l-65 0 0 65 -65 0 0 61 -126 0 0 65 -65 0 0 65 0 61 65 0 0 64 65 0 126 0 22 0 43 0 6 0 119 0 0 65 -118 0 -7 0 -51 0 -14 0 0 65 -65 0 0 -65 -61 0 0 -65 0 -64 126 0 0 -61 -126 0 -65 0 0 -65 126 0 0 -65 130 0 0 -42 0 -19 0 -65zm376 383l-1 0 0 2 1 0 0 -2zm-125 445l65 0 0 -65 -65 0 0 65z"/>
</g>
</g>
</g>
</svg>